<svg xmlns="http://www.w3.org/2000/svg" xmlns:xlink="http://www.w3.org/1999/xlink" width="500" zoomAndPan="magnify" viewBox="0 0 375 374.999991" height="500" preserveAspectRatio="xMidYMid meet" version="1.0"><defs><clipPath id="a197e41cc0"><path d="M 18.535156 37.5 L 337.5 37.5 L 337.5 356.464844 L 18.535156 356.464844 Z M 18.535156 37.5 " clip-rule="nonzero"/></clipPath><clipPath id="d40137da89"><path d="M 178.015625 37.5 C 89.9375 37.5 18.535156 108.902344 18.535156 196.980469 C 18.535156 285.0625 89.9375 356.464844 178.015625 356.464844 C 266.097656 356.464844 337.5 285.0625 337.5 196.980469 C 337.5 108.902344 266.097656 37.5 178.015625 37.5 Z M 178.015625 37.5 " clip-rule="nonzero"/></clipPath><clipPath id="643f687d00"><path d="M 26.351562 37.5 L 329.5 37.5 L 329.5 357 L 26.351562 357 Z M 26.351562 37.5 " clip-rule="nonzero"/></clipPath><clipPath id="07b5cbe445"><path d="M 177.925781 37.5 C 94.214844 37.5 26.351562 108.902344 26.351562 196.980469 C 26.351562 285.0625 94.214844 356.464844 177.925781 356.464844 C 261.636719 356.464844 329.5 285.0625 329.5 196.980469 C 329.5 108.902344 261.636719 37.5 177.925781 37.5 Z M 177.925781 37.5 " clip-rule="nonzero"/></clipPath><clipPath id="3c8d382992"><path d="M 125 117 L 209 117 L 209 171 L 125 171 Z M 125 117 " clip-rule="nonzero"/></clipPath><clipPath id="070e04c574"><path d="M 86.753906 79.9375 L 86.753906 295.0625 C 86.753906 295.890625 87.421875 296.5625 88.253906 296.5625 L 286.746094 296.5625 C 287.574219 296.5625 288.246094 295.890625 288.246094 295.0625 L 288.246094 79.9375 C 288.246094 79.109375 287.574219 78.4375 286.746094 78.4375 L 88.253906 78.4375 C 87.421875 78.4375 86.753906 79.109375 86.753906 79.9375 Z M 86.753906 79.9375 " clip-rule="nonzero"/></clipPath><clipPath id="646a9fc645"><path d="M 138 98 L 222 98 L 222 152 L 138 152 Z M 138 98 " clip-rule="nonzero"/></clipPath><clipPath id="d875ac4e9a"><path d="M 86.753906 79.9375 L 86.753906 295.0625 C 86.753906 295.890625 87.421875 296.5625 88.253906 296.5625 L 286.746094 296.5625 C 287.574219 296.5625 288.246094 295.890625 288.246094 295.0625 L 288.246094 79.9375 C 288.246094 79.109375 287.574219 78.4375 286.746094 78.4375 L 88.253906 78.4375 C 87.421875 78.4375 86.753906 79.109375 86.753906 79.9375 Z M 86.753906 79.9375 " clip-rule="nonzero"/></clipPath><clipPath id="14e0a2108c"><path d="M 116 83 L 287 83 L 287 259 L 116 259 Z M 116 83 " clip-rule="nonzero"/></clipPath><clipPath id="9ec7324d10"><path d="M 86.753906 79.9375 L 86.753906 295.0625 C 86.753906 295.890625 87.421875 296.5625 88.253906 296.5625 L 286.746094 296.5625 C 287.574219 296.5625 288.246094 295.890625 288.246094 295.0625 L 288.246094 79.9375 C 288.246094 79.109375 287.574219 78.4375 286.746094 78.4375 L 88.253906 78.4375 C 87.421875 78.4375 86.753906 79.109375 86.753906 79.9375 Z M 86.753906 79.9375 " clip-rule="nonzero"/></clipPath><clipPath id="641b91e193"><path d="M 212 168 L 253 168 L 253 180 L 212 180 Z M 212 168 " clip-rule="nonzero"/></clipPath><clipPath id="dde9426097"><path d="M 86.753906 79.9375 L 86.753906 295.0625 C 86.753906 295.890625 87.421875 296.5625 88.253906 296.5625 L 286.746094 296.5625 C 287.574219 296.5625 288.246094 295.890625 288.246094 295.0625 L 288.246094 79.9375 C 288.246094 79.109375 287.574219 78.4375 286.746094 78.4375 L 88.253906 78.4375 C 87.421875 78.4375 86.753906 79.109375 86.753906 79.9375 Z M 86.753906 79.9375 " clip-rule="nonzero"/></clipPath><clipPath id="c1f25b0923"><path d="M 182 159 L 245 159 L 245 181 L 182 181 Z M 182 159 " clip-rule="nonzero"/></clipPath><clipPath id="5644a58953"><path d="M 86.753906 79.9375 L 86.753906 295.0625 C 86.753906 295.890625 87.421875 296.5625 88.253906 296.5625 L 286.746094 296.5625 C 287.574219 296.5625 288.246094 295.890625 288.246094 295.0625 L 288.246094 79.9375 C 288.246094 79.109375 287.574219 78.4375 286.746094 78.4375 L 88.253906 78.4375 C 87.421875 78.4375 86.753906 79.109375 86.753906 79.9375 Z M 86.753906 79.9375 " clip-rule="nonzero"/></clipPath><clipPath id="493930f617"><path d="M 174 151 L 262 151 L 262 221 L 174 221 Z M 174 151 " clip-rule="nonzero"/></clipPath><clipPath id="3c63c22bb2"><path d="M 86.753906 79.9375 L 86.753906 295.0625 C 86.753906 295.890625 87.421875 296.5625 88.253906 296.5625 L 286.746094 296.5625 C 287.574219 296.5625 288.246094 295.890625 288.246094 295.0625 L 288.246094 79.9375 C 288.246094 79.109375 287.574219 78.4375 286.746094 78.4375 L 88.253906 78.4375 C 87.421875 78.4375 86.753906 79.109375 86.753906 79.9375 Z M 86.753906 79.9375 " clip-rule="nonzero"/></clipPath><clipPath id="7188be7a3e"><path d="M 91 194 L 257 194 L 257 294 L 91 294 Z M 91 194 " clip-rule="nonzero"/></clipPath><clipPath id="067f41f62e"><path d="M 86.753906 79.9375 L 86.753906 295.0625 C 86.753906 295.890625 87.421875 296.5625 88.253906 296.5625 L 286.746094 296.5625 C 287.574219 296.5625 288.246094 295.890625 288.246094 295.0625 L 288.246094 79.9375 C 288.246094 79.109375 287.574219 78.4375 286.746094 78.4375 L 88.253906 78.4375 C 87.421875 78.4375 86.753906 79.109375 86.753906 79.9375 Z M 86.753906 79.9375 " clip-rule="nonzero"/></clipPath><clipPath id="47adaee9fb"><path d="M 127 218 L 176 218 L 176 266 L 127 266 Z M 127 218 " clip-rule="nonzero"/></clipPath><clipPath id="8fa11a7b1f"><path d="M 86.753906 79.9375 L 86.753906 295.0625 C 86.753906 295.890625 87.421875 296.5625 88.253906 296.5625 L 286.746094 296.5625 C 287.574219 296.5625 288.246094 295.890625 288.246094 295.0625 L 288.246094 79.9375 C 288.246094 79.109375 287.574219 78.4375 286.746094 78.4375 L 88.253906 78.4375 C 87.421875 78.4375 86.753906 79.109375 86.753906 79.9375 Z M 86.753906 79.9375 " clip-rule="nonzero"/></clipPath><clipPath id="6b8381e3d5"><path d="M 154 218 L 166 218 L 166 251 L 154 251 Z M 154 218 " clip-rule="nonzero"/></clipPath><clipPath id="59c8ce2262"><path d="M 86.753906 79.9375 L 86.753906 295.0625 C 86.753906 295.890625 87.421875 296.5625 88.253906 296.5625 L 286.746094 296.5625 C 287.574219 296.5625 288.246094 295.890625 288.246094 295.0625 L 288.246094 79.9375 C 288.246094 79.109375 287.574219 78.4375 286.746094 78.4375 L 88.253906 78.4375 C 87.421875 78.4375 86.753906 79.109375 86.753906 79.9375 Z M 86.753906 79.9375 " clip-rule="nonzero"/></clipPath><clipPath id="78e379d439"><path d="M 139 223 L 154 223 L 154 252 L 139 252 Z M 139 223 " clip-rule="nonzero"/></clipPath><clipPath id="dfd7f5b792"><path d="M 86.753906 79.9375 L 86.753906 295.0625 C 86.753906 295.890625 87.421875 296.5625 88.253906 296.5625 L 286.746094 296.5625 C 287.574219 296.5625 288.246094 295.890625 288.246094 295.0625 L 288.246094 79.9375 C 288.246094 79.109375 287.574219 78.4375 286.746094 78.4375 L 88.253906 78.4375 C 87.421875 78.4375 86.753906 79.109375 86.753906 79.9375 Z M 86.753906 79.9375 " clip-rule="nonzero"/></clipPath><clipPath id="aa16c34070"><path d="M 173 198 L 221 198 L 221 261 L 173 261 Z M 173 198 " clip-rule="nonzero"/></clipPath><clipPath id="84dc0604f5"><path d="M 86.753906 79.9375 L 86.753906 295.0625 C 86.753906 295.890625 87.421875 296.5625 88.253906 296.5625 L 286.746094 296.5625 C 287.574219 296.5625 288.246094 295.890625 288.246094 295.0625 L 288.246094 79.9375 C 288.246094 79.109375 287.574219 78.4375 286.746094 78.4375 L 88.253906 78.4375 C 87.421875 78.4375 86.753906 79.109375 86.753906 79.9375 Z M 86.753906 79.9375 " clip-rule="nonzero"/></clipPath><clipPath id="235f65bfd0"><path d="M 145 152 L 158 152 L 158 162 L 145 162 Z M 145 152 " clip-rule="nonzero"/></clipPath><clipPath id="64524e8bcf"><path d="M 86.753906 79.9375 L 86.753906 295.0625 C 86.753906 295.890625 87.421875 296.5625 88.253906 296.5625 L 286.746094 296.5625 C 287.574219 296.5625 288.246094 295.890625 288.246094 295.0625 L 288.246094 79.9375 C 288.246094 79.109375 287.574219 78.4375 286.746094 78.4375 L 88.253906 78.4375 C 87.421875 78.4375 86.753906 79.109375 86.753906 79.9375 Z M 86.753906 79.9375 " clip-rule="nonzero"/></clipPath><clipPath id="e49f666e66"><path d="M 126 195 L 134 195 L 134 204 L 126 204 Z M 126 195 " clip-rule="nonzero"/></clipPath><clipPath id="5c4ba12f79"><path d="M 86.753906 79.9375 L 86.753906 295.0625 C 86.753906 295.890625 87.421875 296.5625 88.253906 296.5625 L 286.746094 296.5625 C 287.574219 296.5625 288.246094 295.890625 288.246094 295.0625 L 288.246094 79.9375 C 288.246094 79.109375 287.574219 78.4375 286.746094 78.4375 L 88.253906 78.4375 C 87.421875 78.4375 86.753906 79.109375 86.753906 79.9375 Z M 86.753906 79.9375 " clip-rule="nonzero"/></clipPath><clipPath id="805e6de31c"><path d="M 106 204 L 113 204 L 113 213 L 106 213 Z M 106 204 " clip-rule="nonzero"/></clipPath><clipPath id="f06d6892d3"><path d="M 86.753906 79.9375 L 86.753906 295.0625 C 86.753906 295.890625 87.421875 296.5625 88.253906 296.5625 L 286.746094 296.5625 C 287.574219 296.5625 288.246094 295.890625 288.246094 295.0625 L 288.246094 79.9375 C 288.246094 79.109375 287.574219 78.4375 286.746094 78.4375 L 88.253906 78.4375 C 87.421875 78.4375 86.753906 79.109375 86.753906 79.9375 Z M 86.753906 79.9375 " clip-rule="nonzero"/></clipPath><clipPath id="a448e29c80"><path d="M 97 176 L 117 176 L 117 183 L 97 183 Z M 97 176 " clip-rule="nonzero"/></clipPath><clipPath id="f848c4dfe2"><path d="M 86.753906 79.9375 L 86.753906 295.0625 C 86.753906 295.890625 87.421875 296.5625 88.253906 296.5625 L 286.746094 296.5625 C 287.574219 296.5625 288.246094 295.890625 288.246094 295.0625 L 288.246094 79.9375 C 288.246094 79.109375 287.574219 78.4375 286.746094 78.4375 L 88.253906 78.4375 C 87.421875 78.4375 86.753906 79.109375 86.753906 79.9375 Z M 86.753906 79.9375 " clip-rule="nonzero"/></clipPath><clipPath id="271da57960"><path d="M 97 185 L 113 185 L 113 216 L 97 216 Z M 97 185 " clip-rule="nonzero"/></clipPath><clipPath id="20be6c194a"><path d="M 86.753906 79.9375 L 86.753906 295.0625 C 86.753906 295.890625 87.421875 296.5625 88.253906 296.5625 L 286.746094 296.5625 C 287.574219 296.5625 288.246094 295.890625 288.246094 295.0625 L 288.246094 79.9375 C 288.246094 79.109375 287.574219 78.4375 286.746094 78.4375 L 88.253906 78.4375 C 87.421875 78.4375 86.753906 79.109375 86.753906 79.9375 Z M 86.753906 79.9375 " clip-rule="nonzero"/></clipPath><clipPath id="6e3f913cf5"><path d="M 93 178 L 145 178 L 145 224 L 93 224 Z M 93 178 " clip-rule="nonzero"/></clipPath><clipPath id="60d1b9998a"><path d="M 86.753906 79.9375 L 86.753906 295.0625 C 86.753906 295.890625 87.421875 296.5625 88.253906 296.5625 L 286.746094 296.5625 C 287.574219 296.5625 288.246094 295.890625 288.246094 295.0625 L 288.246094 79.9375 C 288.246094 79.109375 287.574219 78.4375 286.746094 78.4375 L 88.253906 78.4375 C 87.421875 78.4375 86.753906 79.109375 86.753906 79.9375 Z M 86.753906 79.9375 " clip-rule="nonzero"/></clipPath><clipPath id="b70fa30f44"><path d="M 125 131 L 186 131 L 186 192 L 125 192 Z M 125 131 " clip-rule="nonzero"/></clipPath><clipPath id="45c6dac60a"><path d="M 86.753906 79.9375 L 86.753906 295.0625 C 86.753906 295.890625 87.421875 296.5625 88.253906 296.5625 L 286.746094 296.5625 C 287.574219 296.5625 288.246094 295.890625 288.246094 295.0625 L 288.246094 79.9375 C 288.246094 79.109375 287.574219 78.4375 286.746094 78.4375 L 88.253906 78.4375 C 87.421875 78.4375 86.753906 79.109375 86.753906 79.9375 Z M 86.753906 79.9375 " clip-rule="nonzero"/></clipPath><clipPath id="290879494e"><path d="M 111.605469 162.023438 L 124.488281 162.023438 L 124.488281 173.324219 L 111.605469 173.324219 Z M 111.605469 162.023438 " clip-rule="nonzero"/></clipPath><clipPath id="4e1e09aa14"><path d="M 112.117188 163.863281 C 111.074219 165.582031 111.808594 167.253906 112.730469 168.140625 L 118.128906 173.324219 L 123.417969 168.160156 C 124.277344 167.207031 124.605469 166.191406 124.421875 165.066406 C 124.167969 163.503906 122.882812 162.292969 121.296875 162.121094 C 120.320312 162.015625 119.378906 162.292969 118.644531 162.902344 C 118.449219 163.066406 118.269531 163.25 118.117188 163.449219 C 117.933594 163.222656 117.71875 163.015625 117.476562 162.832031 C 116.632812 162.1875 115.558594 161.933594 114.523438 162.132812 C 113.546875 162.320312 112.667969 162.953125 112.117188 163.863281 Z M 112.117188 163.863281 " clip-rule="nonzero"/></clipPath></defs><g clip-path="url(#a197e41cc0)"><g clip-path="url(#d40137da89)"><path fill="#008080" d="M 18.535156 37.5 L 337.5 37.5 L 337.5 356.464844 L 18.535156 356.464844 Z M 18.535156 37.5 " fill-opacity="1" fill-rule="nonzero"/></g></g><g clip-path="url(#643f687d00)"><g clip-path="url(#07b5cbe445)"><path fill="#ffffff" d="M 26.351562 37.5 L 329.5 37.5 L 329.5 356.039062 L 26.351562 356.039062 Z M 26.351562 37.5 " fill-opacity="1" fill-rule="nonzero"/></g></g><g clip-path="url(#3c8d382992)"><g clip-path="url(#070e04c574)"><path fill="#008080" d="M 126.195312 117.226562 C 126.554688 162.398438 211.9375 125.054688 208.800781 170.691406 C 202.585938 131.191406 116.007812 164.609375 126.195312 117.226562 " fill-opacity="1" fill-rule="nonzero"/></g></g><g clip-path="url(#646a9fc645)"><g clip-path="url(#d875ac4e9a)"><path fill="#008080" d="M 139.222656 98.230469 C 139.585938 143.402344 224.964844 106.058594 221.828125 151.699219 C 215.617188 112.195312 129.039062 145.613281 139.222656 98.230469 " fill-opacity="1" fill-rule="nonzero"/></g></g><g clip-path="url(#14e0a2108c)"><g clip-path="url(#9ec7324d10)"><path fill="#008080" d="M 116.847656 136.570312 C 112.910156 110.898438 131.929688 89.609375 156.214844 84.648438 C 186.234375 78.519531 211.597656 97.191406 228.71875 119.964844 C 242.933594 138.867188 246.171875 163.820312 265.242188 179.085938 C 273.242188 185.488281 288.25 190.152344 286.855469 202.878906 C 284.375 225.546875 246.40625 230.128906 271.96875 258.628906 C 254.996094 245.019531 256.367188 231.878906 269.527344 219.109375 C 274.414062 214.363281 282.265625 210.109375 282.523438 202.289062 C 282.867188 191.992188 266.84375 187.300781 260.511719 182.234375 C 245.792969 170.457031 242.042969 155.519531 233.984375 139.832031 C 227.691406 127.585938 219.175781 116.542969 209.113281 107.152344 C 195.980469 94.902344 180.046875 87.046875 161.636719 88.394531 C 135.914062 90.285156 115.25 110.164062 116.847656 136.570312 " fill-opacity="1" fill-rule="nonzero"/></g></g><g clip-path="url(#641b91e193)"><g clip-path="url(#dde9426097)"><path fill="#008080" d="M 212.171875 171.394531 C 224.347656 166.492188 244.871094 166.804688 252.269531 179.835938 C 241.070312 171.316406 225.519531 171.746094 212.171875 171.394531 " fill-opacity="1" fill-rule="nonzero"/></g></g><g clip-path="url(#c1f25b0923)"><g clip-path="url(#5644a58953)"><path fill="#008080" d="M 182.273438 159.261719 C 188.109375 165.867188 194.785156 172.183594 203.4375 174.714844 C 215.597656 178.269531 235.035156 169.1875 244.535156 179.835938 C 233.273438 173.363281 218.878906 182.550781 206.546875 180.316406 C 195.171875 178.25 186.566406 169.824219 182.273438 159.261719 " fill-opacity="1" fill-rule="nonzero"/></g></g><g clip-path="url(#493930f617)"><g clip-path="url(#3c63c22bb2)"><path fill="#008080" d="M 174.535156 151.699219 C 180.199219 167.367188 191.328125 181.617188 208.722656 184.378906 C 218.085938 185.863281 227.730469 183.808594 237.078125 185.527344 C 255.738281 188.96875 265.207031 202.699219 259.660156 220.992188 C 261.410156 202.582031 252.757812 191.972656 233.878906 189.804688 C 224.703125 188.75 215.246094 190.796875 206.148438 188.71875 C 188.625 184.722656 177.140625 168.828125 174.535156 151.699219 " fill-opacity="1" fill-rule="nonzero"/></g></g><g clip-path="url(#7188be7a3e)"><g clip-path="url(#067f41f62e)"><path fill="#008080" d="M 223.78125 197.074219 C 224.917969 196.476562 224.402344 196.898438 223.78125 197.074219 C 229.613281 195.417969 234.042969 193.214844 240.351562 194.621094 C 245.425781 195.757812 250.035156 198.765625 252.796875 203.214844 C 259.296875 213.695312 255.523438 225.40625 251.25 235.808594 C 242.769531 256.433594 217.53125 287.867188 189.609375 292.707031 C 167.777344 296.492188 148.390625 281.445312 135.261719 265.621094 C 127.121094 255.808594 120.375 244.65625 115.671875 232.800781 C 104.492188 229.539062 86.757812 213.550781 92.753906 196.101562 C 89.644531 214.230469 106.125 226.59375 117.699219 230.507812 C 117.699219 230.507812 127.527344 249.941406 134.425781 258.539062 C 147.460938 274.789062 167.722656 292.683594 190.230469 287.773438 C 199.007812 285.859375 206.996094 280.1875 213.824219 274.378906 C 232.332031 258.628906 244.535156 241.1875 249.242188 220.386719 C 251.328125 211.179688 248.683594 199.078125 238.027344 196.238281 C 233.375 195 228.332031 195.78125 223.78125 197.074219 " fill-opacity="1" fill-rule="nonzero"/></g></g><g clip-path="url(#47adaee9fb)"><g clip-path="url(#8fa11a7b1f)"><path fill="#008080" d="M 127.75 224.863281 C 132.125 240.289062 142.605469 273.769531 163.378906 257.5625 C 180.964844 243.839844 170.5625 234.328125 164.332031 218.882812 C 172.996094 234.621094 183.101562 244.539062 165.316406 259.675781 C 142.394531 279.183594 130.265625 242.410156 127.75 224.863281 " fill-opacity="1" fill-rule="nonzero"/></g></g><g clip-path="url(#6b8381e3d5)"><g clip-path="url(#59c8ce2262)"><path fill="#008080" d="M 157.945312 218.785156 C 157.402344 225.796875 164.414062 229.25 165.035156 235.078125 C 165.769531 241.957031 159.625 245.957031 154.65625 250.074219 C 157.847656 245.683594 163.460938 241.445312 163.210938 235.78125 C 162.9375 229.574219 155.527344 226.273438 157.945312 218.785156 " fill-opacity="1" fill-rule="nonzero"/></g></g><g clip-path="url(#78e379d439)"><g clip-path="url(#dfd7f5b792)"><path fill="#008080" d="M 139.066406 223.855469 C 150.359375 225.515625 155.785156 241.859375 153.433594 251.824219 C 153.074219 242.199219 148.652344 227.96875 139.066406 223.855469 " fill-opacity="1" fill-rule="nonzero"/></g></g><g clip-path="url(#aa16c34070)"><g clip-path="url(#84dc0604f5)"><path fill="#008080" d="M 220.757812 198.613281 C 212.132812 202.902344 204.136719 213.84375 199.394531 221.742188 C 193.425781 231.683594 187.589844 249.238281 184.554688 260.464844 C 181.882812 257.09375 178.191406 254.566406 173.980469 253.589844 C 177.949219 253.65625 181.863281 255.332031 184.785156 258.011719 C 184.285156 258.15625 183.785156 258.296875 183.28125 258.441406 C 185.578125 244.40625 193.523438 209.800781 220.757812 198.613281 C 220.582031 198.6875 220.574219 198.664062 220.757812 198.613281 " fill-opacity="1" fill-rule="nonzero"/></g></g><g clip-path="url(#235f65bfd0)"><g clip-path="url(#64524e8bcf)"><path fill="#008080" d="M 145.691406 159.261719 C 149.90625 158.039062 153.613281 158.191406 156.59375 152.578125 C 159.082031 159.332031 150.640625 165.160156 145.691406 159.261719 " fill-opacity="1" fill-rule="nonzero"/></g></g><g clip-path="url(#e49f666e66)"><g clip-path="url(#5c4ba12f79)"><path fill="#008080" d="M 133.257812 195.921875 C 133.257812 195.921875 133.277344 195.964844 133.308594 196.046875 C 133.335938 196.132812 133.382812 196.253906 133.421875 196.414062 C 133.460938 196.570312 133.511719 196.769531 133.546875 196.996094 C 133.582031 197.21875 133.609375 197.476562 133.625 197.761719 C 133.636719 198.046875 133.632812 198.355469 133.601562 198.683594 C 133.578125 199.011719 133.515625 199.355469 133.429688 199.714844 C 133.378906 199.890625 133.332031 200.070312 133.261719 200.25 C 133.226562 200.339844 133.195312 200.429688 133.160156 200.523438 C 133.117188 200.613281 133.078125 200.699219 133.035156 200.789062 C 132.867188 201.148438 132.648438 201.5 132.386719 201.820312 C 132.125 202.140625 131.808594 202.425781 131.472656 202.664062 C 131.300781 202.773438 131.132812 202.894531 130.949219 202.972656 C 130.859375 203.015625 130.769531 203.058594 130.679688 203.101562 C 130.589844 203.144531 130.496094 203.167969 130.402344 203.203125 C 130.3125 203.234375 130.222656 203.265625 130.132812 203.289062 C 130.042969 203.3125 129.949219 203.335938 129.863281 203.351562 C 129.683594 203.394531 129.507812 203.417969 129.335938 203.429688 C 129.167969 203.449219 129 203.460938 128.84375 203.449219 C 128.683594 203.441406 128.53125 203.449219 128.390625 203.425781 C 128.101562 203.386719 127.839844 203.355469 127.617188 203.289062 C 127.394531 203.230469 127.203125 203.171875 127.050781 203.105469 C 126.894531 203.050781 126.777344 202.992188 126.695312 202.957031 C 126.617188 202.921875 126.574219 202.902344 126.574219 202.902344 C 126.574219 202.902344 126.621094 202.890625 126.710938 202.875 C 126.796875 202.863281 126.921875 202.835938 127.082031 202.816406 C 127.238281 202.800781 127.429688 202.753906 127.640625 202.71875 C 127.855469 202.691406 128.089844 202.628906 128.339844 202.578125 C 128.464844 202.554688 128.589844 202.511719 128.71875 202.476562 C 128.785156 202.457031 128.851562 202.4375 128.917969 202.417969 C 128.980469 202.398438 129.046875 202.371094 129.113281 202.347656 C 129.179688 202.324219 129.246094 202.304688 129.3125 202.277344 C 129.378906 202.253906 129.441406 202.222656 129.507812 202.195312 C 129.570312 202.164062 129.636719 202.132812 129.703125 202.109375 C 129.769531 202.078125 129.832031 202.039062 129.894531 202.003906 C 130.15625 201.875 130.390625 201.699219 130.625 201.523438 C 130.84375 201.328125 131.066406 201.128906 131.253906 200.886719 C 131.453125 200.660156 131.617188 200.394531 131.777344 200.128906 C 131.9375 199.863281 132.070312 199.582031 132.199219 199.300781 C 132.316406 199.015625 132.433594 198.734375 132.527344 198.457031 C 132.625 198.183594 132.707031 197.914062 132.785156 197.664062 C 132.933594 197.160156 133.050781 196.726562 133.132812 196.414062 C 133.210938 196.101562 133.257812 195.921875 133.257812 195.921875 " fill-opacity="1" fill-rule="nonzero"/></g></g><g clip-path="url(#805e6de31c)"><g clip-path="url(#f06d6892d3)"><path fill="#008080" d="M 112.222656 212.847656 C 103.289062 213.675781 105.902344 199.695312 112.074219 206.703125 C 105.824219 204.019531 107.8125 211.273438 112.222656 212.847656 " fill-opacity="1" fill-rule="nonzero"/></g></g><g clip-path="url(#a448e29c80)"><g clip-path="url(#f848c4dfe2)"><path fill="#008080" d="M 109.222656 181.75 C 104.574219 179.46875 99.765625 180.773438 97.03125 182.730469 C 100.03125 177.066406 110.960938 174.789062 116.335938 178.574219 C 116.335938 178.574219 116.464844 179.292969 116.328125 179.257812 C 116.363281 179.265625 109.222656 181.75 109.222656 181.75 " fill-opacity="1" fill-rule="nonzero"/></g></g><g clip-path="url(#271da57960)"><g clip-path="url(#20be6c194a)"><path fill="#008080" d="M 112.222656 185.910156 C 96.5 188.519531 97.632812 205.019531 103.875 215.183594 C 94.429688 206.3125 94.601562 184.40625 112.222656 185.910156 " fill-opacity="1" fill-rule="nonzero"/></g></g><g clip-path="url(#6e3f913cf5)"><g clip-path="url(#60d1b9998a)"><path fill="#008080" d="M 144.683594 205.660156 C 144.597656 205.519531 144.492188 205.382812 144.371094 205.257812 C 143.726562 204.59375 142.984375 204.054688 142.378906 203.351562 C 141.746094 202.609375 141.1875 201.804688 140.71875 200.949219 C 139.261719 198.316406 139.183594 195.429688 138.285156 192.621094 C 136.570312 187.253906 132.28125 182.773438 127.214844 180.4375 C 125.402344 179.601562 123.484375 179.003906 121.519531 178.664062 C 113.316406 177.257812 104.253906 180.578125 98.707031 186.753906 C 95.839844 189.945312 93.761719 193.988281 93.285156 198.285156 C 93.195312 199.191406 93.148438 200.019531 93.167969 200.769531 C 93.1875 202.269531 93.382812 203.425781 93.527344 204.207031 C 93.597656 204.597656 93.679688 204.886719 93.722656 205.089844 C 93.769531 205.285156 93.792969 205.390625 93.792969 205.390625 C 93.792969 205.390625 93.785156 205.285156 93.765625 205.082031 C 93.75 204.878906 93.714844 204.574219 93.691406 204.183594 C 93.640625 203.398438 93.621094 202.242188 93.75 200.792969 C 94.105469 196.746094 95.9375 192.804688 98.523438 189.683594 C 101.953125 185.546875 106.953125 182.828125 112.167969 181.691406 C 115.097656 181.0625 118.234375 180.933594 121.28125 181.507812 C 126.335938 182.464844 130.867188 185.496094 133.675781 189.804688 C 134.59375 191.214844 135.324219 192.742188 135.851562 194.339844 C 136.367188 195.902344 136.542969 197.550781 137.074219 199.109375 C 137.9375 201.640625 139.375 203.980469 141.34375 205.804688 C 141.640625 206.078125 141.953125 206.34375 142.273438 206.59375 C 142.242188 206.625 140.515625 208.664062 140.554688 209.429688 C 140.585938 209.976562 142.035156 211.042969 141.832031 212.28125 C 141.601562 213.660156 141.304688 215.046875 140.695312 216.3125 C 140.070312 217.609375 139.128906 218.65625 137.984375 219.515625 C 136.765625 220.425781 135.378906 221.105469 133.992188 221.722656 C 132.574219 222.355469 128.515625 223.609375 127.875 223.847656 C 130.964844 223.433594 134.140625 222.773438 136.976562 221.441406 C 138.144531 220.894531 139.183594 220.125 140.25 219.398438 C 143.382812 217.257812 143.894531 212.449219 143.785156 211.671875 C 143.683594 210.917969 143.191406 210.292969 142.835938 209.636719 C 142.804688 209.574219 142.710938 209.445312 142.710938 209.375 C 142.714844 209.289062 142.832031 209.210938 142.890625 209.15625 C 143.265625 208.800781 143.644531 208.449219 144.007812 208.078125 C 144.375 207.707031 144.738281 207.277344 144.863281 206.753906 C 144.960938 206.359375 144.875 205.988281 144.683594 205.660156 " fill-opacity="1" fill-rule="nonzero"/></g></g><g clip-path="url(#b70fa30f44)"><g clip-path="url(#45c6dac60a)"><path fill="#008080" d="M 165.929688 187.886719 C 161.101562 185.625 160.65625 180.144531 154.882812 179.867188 C 154.707031 174.933594 153.980469 175.621094 150.34375 177.070312 C 148.398438 173.679688 145.691406 173.253906 143.226562 173.652344 C 142.800781 169.777344 143.902344 164.945312 141.964844 160.9375 C 136.167969 148.929688 125.464844 147.863281 125.992188 131.648438 C 122.59375 147.351562 133.808594 150.277344 139.085938 162.308594 C 140.675781 165.933594 140.839844 173.339844 140.921875 176.105469 C 140.945312 176.953125 141.707031 178.070312 142.457031 177.6875 C 145.949219 175.882812 146.867188 176.125 148.125 179.828125 C 148.285156 180.3125 148.898438 180.488281 149.398438 180.378906 C 150.015625 180.238281 150.949219 179.890625 152.238281 179.085938 C 152.722656 181.296875 151.085938 182.058594 154.941406 182.210938 C 157.8125 182.324219 160.074219 189.335938 168.515625 190.984375 C 172.957031 191.855469 180.253906 188.296875 185.789062 180.1875 C 179.941406 185.464844 173.707031 191.527344 165.929688 187.886719 " fill-opacity="1" fill-rule="nonzero"/></g></g><g clip-path="url(#290879494e)"><g clip-path="url(#4e1e09aa14)"><path fill="#008080" d="M 111.605469 162.066406 L 124.488281 162.066406 L 124.488281 173.324219 L 111.605469 173.324219 Z M 111.605469 162.066406 " fill-opacity="1" fill-rule="nonzero"/></g></g></svg>