<svg width="140" height="140" viewBox="0 0 140 140" fill="none" xmlns="http://www.w3.org/2000/svg">
<path d="M70 23.0514C66.1253 23.0514 62.7845 25.3329 61.2458 28.6237C60.3356 30.5704 58.7508 32.2103 56.8411 32.2103H41.2897C39.3382 32.2103 37.8016 30.6326 38.0272 28.7782C39.9663 12.8439 53.542 0.5 70 0.5C87.7895 0.5 102.21 14.9211 102.21 32.7103C102.21 49.1683 89.8666 62.744 73.9321 64.683C72.0777 64.9086 70.5 63.372 70.5 61.4205V45.8692C70.5 43.9595 72.1399 42.3747 74.0866 41.4644C77.3773 39.9257 79.6588 36.5849 79.6588 32.7103C79.6588 27.3758 75.3343 23.0514 70 23.0514ZM116.948 70C116.948 66.1253 114.667 62.7845 111.376 61.2459C109.43 60.3356 107.79 58.7508 107.79 56.8411V41.2897C107.79 39.3382 109.367 37.8016 111.222 38.0272C127.156 39.9663 139.5 53.542 139.5 70C139.5 87.7895 125.079 102.21 107.29 102.21C90.8315 102.21 77.2559 89.8666 75.3169 73.9321C75.0913 72.0777 76.6279 70.5 78.5794 70.5H94.1309C96.0405 70.5 97.6254 72.1399 98.5356 74.0866C100.074 77.3773 103.415 79.6588 107.29 79.6588C112.624 79.6588 116.948 75.3343 116.948 70ZM28.6237 78.7541C30.5704 79.6644 32.2103 81.2492 32.2103 83.1588V98.7103C32.2103 100.662 30.6327 102.198 28.7782 101.973C12.8439 100.034 0.5 86.4582 0.5 70C0.5 52.2108 14.9211 37.7897 32.7103 37.7897C49.1683 37.7897 62.7439 50.1336 64.683 66.0679C64.9086 67.9223 63.372 69.5 61.4205 69.5H45.8692C43.9595 69.5 42.3747 67.8601 41.4645 65.9134C39.9258 62.6226 36.585 60.3411 32.7103 60.3411C27.3758 60.3411 23.0514 64.6655 23.0514 70C23.0514 73.8746 25.3329 77.2154 28.6237 78.7541ZM70 116.948C73.8746 116.948 77.2154 114.667 78.7541 111.376C79.6643 109.43 81.2492 107.79 83.1588 107.79H98.7103C100.662 107.79 102.198 109.367 101.973 111.222C100.034 127.156 86.4582 139.5 70 139.5C52.2108 139.5 37.7897 125.079 37.7897 107.29C37.7897 90.8315 50.1336 77.256 66.0679 75.3169C67.9223 75.0913 69.5 76.6279 69.5 78.5794V94.1309C69.5 96.0405 67.8601 97.6253 65.9134 98.5356C62.6226 100.074 60.3411 103.415 60.3411 107.29C60.3411 112.624 64.6655 116.948 70 116.948Z" fill="url(#paint0_radial_220_70)" stroke="#FF7D94"/>
<defs>
<radialGradient id="paint0_radial_220_70" cx="0" cy="0" r="1" gradientUnits="userSpaceOnUse" gradientTransform="translate(70 70) rotate(90) scale(70)">
<stop stop-color="#F5002B"/>
<stop offset="1" stop-color="#FFC0CB"/>
</radialGradient>
</defs>
</svg>
