<svg width="20" height="18" viewBox="0 0 20 18" fill="none" xmlns="http://www.w3.org/2000/svg">
    <path d="M7.67247 3.1102C7.99341 2.23672 9.22881 2.23672 9.54976 3.1102L10.7654 6.41866C10.8666 6.69411 11.0837 6.91121 11.3591 7.01242L14.6676 8.22804C15.5411 8.54898 15.5411 9.78438 14.6676 10.1053L11.3591 11.321C11.0837 11.4222 10.8666 11.6393 10.7654 11.9147L9.54976 15.2232C9.22881 16.0967 7.99341 16.0967 7.67247 15.2232L6.45684 11.9147C6.35563 11.6393 6.13854 11.4222 5.86309 11.321L2.55463 10.1053C1.68115 9.78439 1.68114 8.54898 2.55463 8.22804L5.86309 7.01242C6.13854 6.91121 6.35563 6.69411 6.45684 6.41866L7.67247 3.1102Z" fill="#F5002B"/>
    <path d="M16.1975 1.27731C16.358 0.840571 16.9757 0.840572 17.1362 1.27732L17.4827 2.22056C17.5333 2.35828 17.6419 2.46683 17.7796 2.51744L18.7228 2.86401C19.1596 3.02448 19.1596 3.64218 18.7228 3.80266L17.7796 4.14923C17.6419 4.19984 17.5333 4.30838 17.4827 4.44611L17.1362 5.38935C16.9757 5.8261 16.358 5.8261 16.1975 5.38935L15.8509 4.44611C15.8003 4.30838 15.6918 4.19984 15.5541 4.14923L14.6108 3.80266C14.1741 3.64218 14.1741 3.02448 14.6108 2.86401L15.5541 2.51744C15.6918 2.46683 15.8003 2.35828 15.8509 2.22056L16.1975 1.27731Z" fill="#F5002B"/>
</svg>
